<?xml version="1.0" standalone="no"?>
<!DOCTYPE svg PUBLIC "-//W3C//DTD SVG 20010904//EN"
 "http://www.w3.org/TR/2001/REC-SVG-20010904/DTD/svg10.dtd">
<svg version="1.0" xmlns="http://www.w3.org/2000/svg"
 width="150.000000pt" height="150.000000pt" viewBox="0 0 150.000000 150.000000"
 preserveAspectRatio="xMidYMid meet">

<g transform="translate(0.000000,150.000000) scale(0.100000,-0.100000)"
fill="#ffffff" stroke="none">
<path d="M850 1483 c0 -17 -218 -1134 -221 -1138 -2 -2 -31 6 -64 17 -49 17
-77 19 -155 15 -114 -5 -186 -35 -255 -104 -75 -75 -80 -148 -14 -214 48 -48
89 -59 221 -59 85 0 119 4 164 21 64 24 122 72 147 121 9 18 62 269 117 558
55 289 104 533 108 542 5 12 40 -32 140 -178 175 -255 177 -259 177 -404 0
-63 -2 -137 -5 -165 -5 -50 -5 -50 26 -53 31 -3 31 -2 42 55 43 224 24 296
-141 553 -102 159 -153 260 -176 351 -13 51 -24 75 -37 80 -25 10 -74 11 -74
2z"/>
<path d="M833 778 c-34 -51 -30 -60 20 -42 64 23 163 28 227 10 52 -14 71 -14
57 0 -18 18 -152 56 -212 61 l-70 5 -22 -34z"/>
</g>
</svg>
